<?xml version="1.0" encoding="UTF-8" standalone="no"?>
<!-- Created with Inkscape (http://www.inkscape.org/) -->

<svg
   xmlns:dc="http://purl.org/dc/elements/1.1/"
   xmlns:cc="http://creativecommons.org/ns#"
   xmlns:rdf="http://www.w3.org/1999/02/22-rdf-syntax-ns#"
   xmlns:svg="http://www.w3.org/2000/svg"
   xmlns="http://www.w3.org/2000/svg"
   xmlns:xlink="http://www.w3.org/1999/xlink"
   xmlns:sodipodi="http://sodipodi.sourceforge.net/DTD/sodipodi-0.dtd"
   xmlns:inkscape="http://www.inkscape.org/namespaces/inkscape"
   width="1000"
   height="600"
   viewBox="0 0 264.58333 158.75"
   version="1.1"
   id="svg8"
   inkscape:version="0.92.3 (2405546, 2018-03-11)"
   sodipodi:docname="background.svg"
   inkscape:export-filename="/home/miracle/Documents/myLoveProjects/onebuttonJam/assets/background.png"
   inkscape:export-xdpi="96.036201"
   inkscape:export-ydpi="96.036201">
  <defs
     id="defs2">
    <linearGradient
       inkscape:collect="always"
       id="linearGradient840">
      <stop
         style="stop-color:#e580ff;stop-opacity:1"
         offset="0"
         id="stop836" />
      <stop
         style="stop-color:#ff80b2;stop-opacity:1"
         offset="1"
         id="stop838" />
    </linearGradient>
    <linearGradient
       inkscape:collect="always"
       xlink:href="#linearGradient840"
       id="linearGradient842"
       x1="148.1929"
       y1="296.99997"
       x2="151.14363"
       y2="147.8235"
       gradientUnits="userSpaceOnUse" />
  </defs>
  <sodipodi:namedview
     id="base"
     pagecolor="#ffffff"
     bordercolor="#666666"
     borderopacity="1.0"
     inkscape:pageopacity="0.0"
     inkscape:pageshadow="2"
     inkscape:zoom="0.89917893"
     inkscape:cx="-389.82654"
     inkscape:cy="529.23482"
     inkscape:document-units="mm"
     inkscape:current-layer="layer1"
     showgrid="false"
     units="px"
     inkscape:window-width="1366"
     inkscape:window-height="710"
     inkscape:window-x="0"
     inkscape:window-y="2"
     inkscape:window-maximized="1" />
  <metadata
     id="metadata5">
    <rdf:RDF>
      <cc:Work
         rdf:about="">
        <dc:format>image/svg+xml</dc:format>
        <dc:type
           rdf:resource="http://purl.org/dc/dcmitype/StillImage" />
        <dc:title></dc:title>
      </cc:Work>
    </rdf:RDF>
  </metadata>
  <g
     inkscape:label="Layer 1"
     inkscape:groupmode="layer"
     id="layer1"
     transform="translate(0,-138.24998)">
    <rect
       style="fill:url(#linearGradient842);fill-opacity:1;stroke:none;stroke-width:0.26458332"
       id="rect815"
       width="270.4848"
       height="164.58591"
       x="-1.6393019"
       y="135.03694" />
    <path
       style="fill:#ffaaee;fill-opacity:1;stroke:none;stroke-width:0.26458332"
       d="m 73.979182,184.03759 a 23.114157,14.425857 0 0 0 -23.114351,14.42599 23.114157,14.425857 0 0 0 23.114351,14.42599 23.114157,14.425857 0 0 0 14.538648,-3.21944 18.196251,10.655462 0 0 0 10.378694,1.90789 18.196251,10.655462 0 0 0 9.130196,-1.45366 18.196251,8.3604393 0 0 0 13.4922,2.76469 18.196251,8.3604393 0 0 0 18.1963,-8.36021 18.196251,8.3604393 0 0 0 -18.1963,-8.36021 18.196251,8.3604393 0 0 0 -2.24483,0.0739 18.196251,7.7047184 0 0 0 0.76946,-2.20503 18.196251,7.7047184 0 0 0 -18.1963,-7.70495 18.196251,7.7047184 0 0 0 -11.72745,1.82469 23.114157,14.425857 0 0 0 -16.140618,-4.11964 z"
       id="path844"
       inkscape:connector-curvature="0" />
    <path
       inkscape:connector-curvature="0"
       id="path861"
       d="m 184.5105,173.3733 a 18.656697,11.643896 0 0 0 -18.65685,11.64401 18.656697,11.643896 0 0 0 18.65685,11.644 18.656697,11.643896 0 0 0 11.73494,-2.59859 14.687187,8.6006045 0 0 0 8.37721,1.53997 14.687187,8.6006045 0 0 0 7.36948,-1.17333 14.687187,6.7481665 0 0 0 10.89029,2.23153 14.687187,6.7481665 0 0 0 14.68723,-6.74798 14.687187,6.7481665 0 0 0 -14.68723,-6.74798 14.687187,6.7481665 0 0 0 -1.81193,0.0597 14.687187,6.2188984 0 0 0 0.62109,-1.7798 14.687187,6.2188984 0 0 0 -14.68724,-6.2191 14.687187,6.2188984 0 0 0 -9.46586,1.47282 18.656697,11.643896 0 0 0 -13.02798,-3.3252 z"
       style="fill:#ffaaee;fill-opacity:1;stroke:none;stroke-width:0.21355963" />
    <path
       style="fill:#ffaacc;fill-opacity:1;stroke:none;stroke-width:0.29502237"
       d="m 29.808245,146.48075 a 25.773331,16.085483 0 0 0 -25.773543,16.08564 25.773331,16.085483 0 0 0 25.773543,16.08563 25.773331,16.085483 0 0 0 16.211256,-3.58983 20.289644,11.881322 0 0 0 11.572714,2.1274 20.289644,11.881322 0 0 0 10.180583,-1.6209 20.289644,9.3222681 0 0 0 15.044413,3.08275 20.289644,9.3222681 0 0 0 20.289699,-9.32201 20.289644,9.3222681 0 0 0 -20.289699,-9.32201 20.289644,9.3222681 0 0 0 -2.503095,0.0825 20.289644,8.5911097 0 0 0 0.858006,-2.45871 20.289644,8.5911097 0 0 0 -20.289717,-8.59139 20.289644,8.5911097 0 0 0 -13.076631,2.03463 25.773331,16.085483 0 0 0 -17.997529,-4.5936 z"
       id="path863"
       inkscape:connector-curvature="0" />
    <circle
       style="fill:#9dff5f;fill-opacity:1;stroke:none;stroke-width:0.26458332"
       id="path865"
       cx="-102.93354"
       cy="156.97327"
       r="53.785091"
       inkscape:export-xdpi="18.889999"
       inkscape:export-ydpi="18.889999" />
    <ellipse
       style="fill:#cbffaa;fill-opacity:1;stroke:none;stroke-width:0.35639608"
       id="path869"
       cx="-124.0074"
       cy="142.40685"
       rx="10.195239"
       ry="18.30982"
       inkscape:export-xdpi="18.889999"
       inkscape:export-ydpi="18.889999" />
    <ellipse
       style="fill:#cbffaa;fill-opacity:1;stroke:none;stroke-width:0.29913077"
       id="path871"
       cx="-75.840096"
       cy="141.78267"
       rx="9.0508757"
       ry="17.685621"
       inkscape:export-xdpi="18.889999"
       inkscape:export-ydpi="18.889999" />
    <path
       style="fill:#cbffaa;stroke:none;stroke-width:0.26458332px;stroke-linecap:butt;stroke-linejoin:miter;stroke-opacity:1;fill-opacity:1"
       d="m -127.54453,180.06682 c 0,0 31.209919,33.29058 56.177852,-2.28873 z"
       id="path873"
       inkscape:connector-curvature="0"
       inkscape:export-xdpi="18.889999"
       inkscape:export-ydpi="18.889999" />
  </g>
</svg>
